<svg xmlns="http://www.w3.org/2000/svg" width="720" height="230" viewBox="0 0 720 230">
  <defs>
    <style>
      text { font-family: 'Consolas', 'Courier New', monospace; }
      .label { font-family: 'Segoe UI', Helvetica, Arial, sans-serif; }
    </style>
  </defs>

  <!-- Title -->
  <text x="360" y="20" text-anchor="middle" font-size="13" font-weight="bold" fill="#1a252f" class="label">5.75 Sayısının IEEE 754 Tek Duyarlıklı (Single Precision) Gösterimi</text>

  <!-- Field headers -->
  <text x="48" y="44" text-anchor="middle" font-size="10" fill="#6c3483" class="label">İşaret</text>
  <text x="208" y="44" text-anchor="middle" font-size="10" fill="#1a5276" class="label">Üs (Exponent)</text>
  <text x="520" y="44" text-anchor="middle" font-size="10" fill="#1a5276" class="label">Mantis (Mantissa)</text>

  <!-- Sign bit cell -->
  <rect x="22" y="50" width="52" height="50" rx="3" fill="#ebdef0" stroke="#7d3c98" stroke-width="2"/>
  <text x="48" y="81" text-anchor="middle" font-size="20" font-weight="bold" fill="#6c3483">0</text>

  <!-- Exponent cells: 8 bits = 10000001 -->
  <!-- Each cell: width 32, starting x=80 -->
  <!-- bits: 1 0 0 0 0 0 0 1 -->
  <rect x="80"  y="50" width="32" height="50" rx="0" fill="#d6eaf8" stroke="#1a6fa0" stroke-width="1.5"/>
  <text x="96"  y="81" text-anchor="middle" font-size="20" font-weight="bold" fill="#1a5276">1</text>
  <rect x="112" y="50" width="32" height="50" fill="#d6eaf8" stroke="#1a6fa0" stroke-width="1.5"/>
  <text x="128" y="81" text-anchor="middle" font-size="20" font-weight="bold" fill="#1a5276">0</text>
  <rect x="144" y="50" width="32" height="50" fill="#d6eaf8" stroke="#1a6fa0" stroke-width="1.5"/>
  <text x="160" y="81" text-anchor="middle" font-size="20" font-weight="bold" fill="#1a5276">0</text>
  <rect x="176" y="50" width="32" height="50" fill="#d6eaf8" stroke="#1a6fa0" stroke-width="1.5"/>
  <text x="192" y="81" text-anchor="middle" font-size="20" font-weight="bold" fill="#1a5276">0</text>
  <rect x="208" y="50" width="32" height="50" fill="#d6eaf8" stroke="#1a6fa0" stroke-width="1.5"/>
  <text x="224" y="81" text-anchor="middle" font-size="20" font-weight="bold" fill="#1a5276">0</text>
  <rect x="240" y="50" width="32" height="50" fill="#d6eaf8" stroke="#1a6fa0" stroke-width="1.5"/>
  <text x="256" y="81" text-anchor="middle" font-size="20" font-weight="bold" fill="#1a5276">0</text>
  <rect x="272" y="50" width="32" height="50" fill="#d6eaf8" stroke="#1a6fa0" stroke-width="1.5"/>
  <text x="288" y="81" text-anchor="middle" font-size="20" font-weight="bold" fill="#1a5276">0</text>
  <rect x="304" y="50" width="32" height="50" rx="0" fill="#d6eaf8" stroke="#1a6fa0" stroke-width="1.5"/>
  <text x="320" y="81" text-anchor="middle" font-size="20" font-weight="bold" fill="#1a5276">1</text>

  <!-- Mantissa cells: 23 bits = 01110000000000000000000 -->
  <!-- Each mantissa cell width: (720-22-52-256-10)/23 ≈ 16.5 px, start x=342 -->
  <!-- Using width=16, total=368, fits within remaining space -->
  <!-- bits: 0 1 1 1 0 0 0 0 0 0 0 0 0 0 0 0 0 0 0 0 0 0 0 -->
  <!-- Significant bits highlighted differently -->
  <rect x="342" y="50" width="16" height="50" fill="#d5f5e3" stroke="#1e8449" stroke-width="1"/>
  <text x="350" y="81" text-anchor="middle" font-size="13" font-weight="bold" fill="#1e8449">0</text>
  <rect x="358" y="50" width="16" height="50" fill="#a9dfbf" stroke="#1e8449" stroke-width="1"/>
  <text x="366" y="81" text-anchor="middle" font-size="13" font-weight="bold" fill="#1e8449">1</text>
  <rect x="374" y="50" width="16" height="50" fill="#a9dfbf" stroke="#1e8449" stroke-width="1"/>
  <text x="382" y="81" text-anchor="middle" font-size="13" font-weight="bold" fill="#1e8449">1</text>
  <rect x="390" y="50" width="16" height="50" fill="#a9dfbf" stroke="#1e8449" stroke-width="1"/>
  <text x="398" y="81" text-anchor="middle" font-size="13" font-weight="bold" fill="#1e8449">1</text>

  <!-- Remaining 19 zero bits -->
  <rect x="406" y="50" width="16" height="50" fill="#d5f5e3" stroke="#1e8449" stroke-width="1"/>
  <text x="414" y="81" text-anchor="middle" font-size="13" fill="#7f8c8d">0</text>
  <rect x="422" y="50" width="16" height="50" fill="#d5f5e3" stroke="#1e8449" stroke-width="1"/>
  <text x="430" y="81" text-anchor="middle" font-size="13" fill="#7f8c8d">0</text>
  <rect x="438" y="50" width="16" height="50" fill="#d5f5e3" stroke="#1e8449" stroke-width="1"/>
  <text x="446" y="81" text-anchor="middle" font-size="13" fill="#7f8c8d">0</text>
  <rect x="454" y="50" width="16" height="50" fill="#d5f5e3" stroke="#1e8449" stroke-width="1"/>
  <text x="462" y="81" text-anchor="middle" font-size="13" fill="#7f8c8d">0</text>
  <rect x="470" y="50" width="16" height="50" fill="#d5f5e3" stroke="#1e8449" stroke-width="1"/>
  <text x="478" y="81" text-anchor="middle" font-size="13" fill="#7f8c8d">0</text>
  <rect x="486" y="50" width="16" height="50" fill="#d5f5e3" stroke="#1e8449" stroke-width="1"/>
  <text x="494" y="81" text-anchor="middle" font-size="13" fill="#7f8c8d">0</text>
  <rect x="502" y="50" width="16" height="50" fill="#d5f5e3" stroke="#1e8449" stroke-width="1"/>
  <text x="510" y="81" text-anchor="middle" font-size="13" fill="#7f8c8d">0</text>
  <rect x="518" y="50" width="16" height="50" fill="#d5f5e3" stroke="#1e8449" stroke-width="1"/>
  <text x="526" y="81" text-anchor="middle" font-size="13" fill="#7f8c8d">0</text>
  <rect x="534" y="50" width="16" height="50" fill="#d5f5e3" stroke="#1e8449" stroke-width="1"/>
  <text x="542" y="81" text-anchor="middle" font-size="13" fill="#7f8c8d">0</text>
  <rect x="550" y="50" width="16" height="50" fill="#d5f5e3" stroke="#1e8449" stroke-width="1"/>
  <text x="558" y="81" text-anchor="middle" font-size="13" fill="#7f8c8d">0</text>
  <rect x="566" y="50" width="16" height="50" fill="#d5f5e3" stroke="#1e8449" stroke-width="1"/>
  <text x="574" y="81" text-anchor="middle" font-size="13" fill="#7f8c8d">0</text>
  <rect x="582" y="50" width="16" height="50" fill="#d5f5e3" stroke="#1e8449" stroke-width="1"/>
  <text x="590" y="81" text-anchor="middle" font-size="13" fill="#7f8c8d">0</text>
  <rect x="598" y="50" width="16" height="50" fill="#d5f5e3" stroke="#1e8449" stroke-width="1"/>
  <text x="606" y="81" text-anchor="middle" font-size="13" fill="#7f8c8d">0</text>
  <rect x="614" y="50" width="16" height="50" fill="#d5f5e3" stroke="#1e8449" stroke-width="1"/>
  <text x="622" y="81" text-anchor="middle" font-size="13" fill="#7f8c8d">0</text>
  <rect x="630" y="50" width="16" height="50" fill="#d5f5e3" stroke="#1e8449" stroke-width="1"/>
  <text x="638" y="81" text-anchor="middle" font-size="13" fill="#7f8c8d">0</text>
  <rect x="646" y="50" width="16" height="50" fill="#d5f5e3" stroke="#1e8449" stroke-width="1"/>
  <text x="654" y="81" text-anchor="middle" font-size="13" fill="#7f8c8d">0</text>
  <rect x="662" y="50" width="16" height="50" fill="#d5f5e3" stroke="#1e8449" stroke-width="1"/>
  <text x="670" y="81" text-anchor="middle" font-size="13" fill="#7f8c8d">0</text>
  <rect x="678" y="50" width="16" height="50" fill="#d5f5e3" stroke="#1e8449" stroke-width="1"/>
  <text x="686" y="81" text-anchor="middle" font-size="13" fill="#7f8c8d">0</text>
  <rect x="694" y="50" width="16" height="50" fill="#d5f5e3" stroke="#1e8449" stroke-width="1"/>
  <text x="702" y="81" text-anchor="middle" font-size="13" fill="#7f8c8d">0</text>

  <!-- Bit position labels -->
  <text x="48"  y="114" text-anchor="middle" font-size="9" fill="#555" class="label">bit 31</text>
  <text x="96"  y="114" text-anchor="middle" font-size="9" fill="#555" class="label">30</text>
  <text x="320" y="114" text-anchor="middle" font-size="9" fill="#555" class="label">23</text>
  <text x="350" y="114" text-anchor="middle" font-size="9" fill="#555" class="label">22</text>
  <text x="702" y="114" text-anchor="middle" font-size="9" fill="#555" class="label">bit 0</text>

  <!-- Annotation lines -->
  <!-- Sign annotation -->
  <line x1="48" y1="116" x2="48" y2="134" stroke="#6c3483" stroke-width="1" stroke-dasharray="3,2"/>
  <text x="48" y="148" text-anchor="middle" font-size="10" fill="#6c3483" class="label">Pozitif (+)</text>

  <!-- Exponent annotation -->
  <line x1="208" y1="116" x2="208" y2="134" stroke="#1a5276" stroke-width="1" stroke-dasharray="3,2"/>
  <text x="208" y="148" text-anchor="middle" font-size="10" fill="#1a5276" class="label">10000001₂ = 129</text>
  <text x="208" y="162" text-anchor="middle" font-size="10" fill="#1a5276" class="label">129 − 127 = 2  ✓</text>

  <!-- Mantissa annotation -->
  <line x1="490" y1="116" x2="490" y2="134" stroke="#1e8449" stroke-width="1" stroke-dasharray="3,2"/>
  <text x="490" y="148" text-anchor="middle" font-size="10" fill="#1e8449" class="label">0111 0000… (Gizli 1. dahil: 1.0111)</text>

  <!-- Result formula -->
  <text x="360" y="195" text-anchor="middle" font-size="12" fill="#2c3e50" class="label">(−1)⁰ × 1.0111₂ × 2² = 1.0111₂ × 4 = 101.11₂ = 5.75 ✓</text>
</svg>
