<svg xmlns="http://www.w3.org/2000/svg" viewBox="0 0 920 640" font-family="'Segoe UI', Arial, sans-serif">
  <defs>
    <marker id="arr-g" markerWidth="9" markerHeight="7" refX="8" refY="3.5" orient="auto">
      <polygon points="0 0, 9 3.5, 0 7" fill="#27ae60"/>
    </marker>
    <filter id="sh" x="-5%" y="-5%" width="115%" height="115%">
      <feDropShadow dx="1" dy="2" stdDeviation="3" flood-opacity="0.18"/>
    </filter>
  </defs>

  <!-- Window outer -->
  <rect width="920" height="640" fill="#d5d8dc" rx="8"/>

  <!-- Title bar -->
  <rect x="0" y="0" width="920" height="32" rx="8" fill="#2c3e50"/>
  <rect x="0" y="16" width="920" height="16" fill="#2c3e50"/>
  <text x="16" y="21" fill="white" font-size="13" font-weight="bold">Weka Knowledge Flow  3.8.x</text>
  <circle cx="848" cy="16" r="8" fill="#2ecc71"/>
  <circle cx="872" cy="16" r="8" fill="#f39c12"/>
  <circle cx="896" cy="16" r="8" fill="#e74c3c"/>

  <!-- Menu bar -->
  <rect x="0" y="32" width="920" height="26" fill="#ecf0f1" stroke="#bdc3c7" stroke-width="0.5"/>
  <text x="14" y="49" fill="#2c3e50" font-size="12">File</text>
  <text x="50" y="49" fill="#2c3e50" font-size="12">Edit</text>
  <text x="88" y="49" fill="#2c3e50" font-size="12">View</text>
  <text x="130" y="49" fill="#2c3e50" font-size="12">Plugin</text>
  <text x="184" y="49" fill="#2c3e50" font-size="12">Help</text>

  <!-- Toolbar -->
  <rect x="0" y="58" width="920" height="38" fill="#f5f6fa" stroke="#dfe6e9" stroke-width="0.5"/>
  <rect x="8" y="65" width="30" height="24" rx="4" fill="white" stroke="#b2bec3"/>
  <text x="23" y="81" text-anchor="middle" fill="#636e72" font-size="10">Yeni</text>
  <rect x="42" y="65" width="30" height="24" rx="4" fill="white" stroke="#b2bec3"/>
  <text x="57" y="81" text-anchor="middle" fill="#636e72" font-size="10">Ac</text>
  <rect x="76" y="65" width="30" height="24" rx="4" fill="white" stroke="#b2bec3"/>
  <text x="91" y="81" text-anchor="middle" fill="#636e72" font-size="10">Kaydet</text>
  <line x1="116" y1="65" x2="116" y2="89" stroke="#dfe6e9" stroke-width="1.5"/>
  <rect x="122" y="65" width="72" height="24" rx="4" fill="#27ae60" stroke="#1e8449"/>
  <text x="158" y="81" text-anchor="middle" fill="white" font-size="11" font-weight="bold">&#9654;  Baslat</text>
  <rect x="198" y="65" width="56" height="24" rx="4" fill="#e74c3c" stroke="#c0392b"/>
  <text x="226" y="81" text-anchor="middle" fill="white" font-size="11" font-weight="bold">&#9632;  Dur</text>

  <!-- Left palette panel -->
  <rect x="0" y="96" width="225" height="514" fill="#fafafa" stroke="#dfe6e9" stroke-width="1"/>
  <rect x="0" y="96" width="225" height="28" fill="#2c3e50"/>
  <text x="112" y="115" text-anchor="middle" fill="white" font-size="11" font-weight="bold">Design Palette</text>

  <!-- Collapsed categories -->
  <rect x="4" y="128" width="217" height="24" rx="3" fill="#ecf0f1" stroke="#bdc3c7"/>
  <text x="14" y="144" fill="#7f8c8d" font-size="11">&#9654; DataSources</text>
  <rect x="4" y="156" width="217" height="24" rx="3" fill="#ecf0f1" stroke="#bdc3c7"/>
  <text x="14" y="172" fill="#7f8c8d" font-size="11">&#9654; Filters</text>
  <rect x="4" y="184" width="217" height="24" rx="3" fill="#ecf0f1" stroke="#bdc3c7"/>
  <text x="14" y="200" fill="#7f8c8d" font-size="11">&#9654; Classifiers</text>
  <rect x="4" y="212" width="217" height="24" rx="3" fill="#ecf0f1" stroke="#bdc3c7"/>
  <text x="14" y="228" fill="#7f8c8d" font-size="11">&#9654; Evaluation</text>
  <rect x="4" y="240" width="217" height="24" rx="3" fill="#ecf0f1" stroke="#bdc3c7"/>
  <text x="14" y="256" fill="#7f8c8d" font-size="11">&#9654; Visualization</text>

  <!-- EXPANDED: Distributed (Spark) -->
  <rect x="4" y="268" width="217" height="24" rx="3" fill="#1a4a8a"/>
  <text x="14" y="284" fill="white" font-size="11" font-weight="bold">&#9660; Distributed (Spark)</text>

  <!-- Spark palette items -->
  <rect x="12" y="296" width="209" height="22" rx="3" fill="#eaf0fb" stroke="#a9b9d0"/>
  <text x="22" y="311" fill="#2c3e50" font-size="10">CSVToARFFHeaderSparkJob</text>

  <rect x="12" y="322" width="209" height="22" rx="3" fill="#eaf0fb" stroke="#a9b9d0"/>
  <text x="22" y="337" fill="#2c3e50" font-size="10">ArffHeaderSparkJob</text>

  <rect x="12" y="348" width="209" height="22" rx="3" fill="#eaf0fb" stroke="#a9b9d0"/>
  <text x="22" y="363" fill="#2c3e50" font-size="10">RandomizedDataChunkSparkJob</text>

  <!-- Highlighted item (currently selected) -->
  <rect x="12" y="374" width="209" height="22" rx="3" fill="#1a4a8a" stroke="#0a2a5a" stroke-width="1.5"/>
  <text x="22" y="389" fill="white" font-size="10" font-weight="bold">WekaClassifierSparkJob</text>

  <rect x="12" y="400" width="209" height="22" rx="3" fill="#eaf0fb" stroke="#a9b9d0"/>
  <text x="22" y="415" fill="#2c3e50" font-size="10">WekaClassifierEvaluationSparkJob</text>

  <rect x="12" y="426" width="209" height="22" rx="3" fill="#eaf0fb" stroke="#a9b9d0"/>
  <text x="22" y="441" fill="#2c3e50" font-size="10">WekaFilterSparkJob</text>

  <rect x="12" y="452" width="209" height="22" rx="3" fill="#eaf0fb" stroke="#a9b9d0"/>
  <text x="22" y="467" fill="#2c3e50" font-size="10">WekaClustererSparkJob</text>

  <text x="112" y="510" text-anchor="middle" fill="#bdc3c7" font-size="9">Cift tiklayarak veya surukleme</text>
  <text x="112" y="523" text-anchor="middle" fill="#bdc3c7" font-size="9">ile tuvale ekleyin</text>

  <!-- Canvas area -->
  <rect x="225" y="96" width="695" height="514" fill="#eef1f5"/>

  <!-- Canvas label -->
  <text x="572" y="118" text-anchor="middle" fill="#95a5a6" font-size="10">Kanvas (Tuval) — bilesenler buraya yerlestirilir ve baglanir</text>

  <!-- ═══ WORKFLOW COMPONENTS ON CANVAS ═══ -->

  <!-- Component 1: CSVToARFFHeader -->
  <g filter="url(#sh)">
    <rect x="248" y="148" width="205" height="68" rx="6" fill="white" stroke="#2e6da4" stroke-width="2"/>
    <rect x="248" y="148" width="205" height="22" rx="6" fill="#2e6da4"/>
    <rect x="248" y="162" width="205" height="8" fill="#2e6da4"/>
    <text x="350" y="164" text-anchor="middle" fill="white" font-size="9" font-weight="bold">CSVToARFFHeaderSparkJob</text>
    <text x="350" y="182" text-anchor="middle" fill="#2c3e50" font-size="9">Giris: /veri/egitim.csv</text>
    <text x="350" y="196" text-anchor="middle" fill="#7f8c8d" font-size="9">master: local[4]  |  sinif: label</text>
    <text x="350" y="208" text-anchor="middle" fill="#7f8c8d" font-size="9">Cikis: /veri/header</text>
  </g>
  <!-- Connection port right -->
  <circle cx="453" cy="182" r="5" fill="#2e6da4" stroke="white" stroke-width="1.5"/>

  <!-- success arrow 1 -> 2 -->
  <line x1="458" y1="182" x2="495" y2="182" stroke="#27ae60" stroke-width="2" marker-end="url(#arr-g)"/>
  <text x="477" y="174" text-anchor="middle" fill="#27ae60" font-size="9" font-weight="bold">success</text>

  <!-- Component 2: RandomizedDataChunk -->
  <g filter="url(#sh)">
    <rect x="497" y="148" width="205" height="68" rx="6" fill="white" stroke="#7b52ab" stroke-width="2"/>
    <rect x="497" y="148" width="205" height="22" rx="6" fill="#7b52ab"/>
    <rect x="497" y="162" width="205" height="8" fill="#7b52ab"/>
    <text x="599" y="164" text-anchor="middle" fill="white" font-size="9" font-weight="bold">RandomizedDataChunkSparkJob</text>
    <text x="599" y="182" text-anchor="middle" fill="#2c3e50" font-size="9">Bolum sayisi: 16</text>
    <text x="599" y="196" text-anchor="middle" fill="#7f8c8d" font-size="9">Tohum (seed): 1</text>
    <text x="599" y="208" text-anchor="middle" fill="#7f8c8d" font-size="9">Cikis: /veri/karisik</text>
  </g>
  <!-- Port bottom -->
  <circle cx="599" cy="216" r="5" fill="#7b52ab" stroke="white" stroke-width="1.5"/>

  <!-- success arrow 2 -> 3 (downward) -->
  <line x1="599" y1="221" x2="599" y2="290" stroke="#27ae60" stroke-width="2" marker-end="url(#arr-g)"/>
  <text x="616" y="258" fill="#27ae60" font-size="9" font-weight="bold">success</text>

  <!-- Component 3: WekaClassifierSparkJob -->
  <g filter="url(#sh)">
    <rect x="466" y="292" width="268" height="72" rx="6" fill="white" stroke="#c8622a" stroke-width="2.5"/>
    <rect x="466" y="292" width="268" height="22" rx="6" fill="#c8622a"/>
    <rect x="466" y="306" width="268" height="8" fill="#c8622a"/>
    <text x="600" y="308" text-anchor="middle" fill="white" font-size="9" font-weight="bold">WekaClassifierSparkJob</text>
    <text x="600" y="326" text-anchor="middle" fill="#2c3e50" font-size="9">Siniflandirici: RandomForest  -I 100  -K 0</text>
    <text x="600" y="340" text-anchor="middle" fill="#7f8c8d" font-size="9">Iterasyon: 16  |  master: local[4]</text>
    <text x="600" y="354" text-anchor="middle" fill="#7f8c8d" font-size="9">Cikis: /veri/model</text>
  </g>
  <!-- Port bottom -->
  <circle cx="600" cy="364" r="5" fill="#c8622a" stroke="white" stroke-width="1.5"/>

  <!-- success arrow 3 -> 4 -->
  <line x1="600" y1="369" x2="600" y2="436" stroke="#27ae60" stroke-width="2" marker-end="url(#arr-g)"/>
  <text x="617" y="405" fill="#27ae60" font-size="9" font-weight="bold">success</text>

  <!-- Component 4: WekaClassifierEvaluationSparkJob -->
  <g filter="url(#sh)">
    <rect x="440" y="438" width="320" height="72" rx="6" fill="white" stroke="#1b5e20" stroke-width="2"/>
    <rect x="440" y="438" width="320" height="22" rx="6" fill="#2e7d32"/>
    <rect x="440" y="452" width="320" height="8" fill="#2e7d32"/>
    <text x="600" y="454" text-anchor="middle" fill="white" font-size="9" font-weight="bold">WekaClassifierEvaluationSparkJob</text>
    <text x="600" y="472" text-anchor="middle" fill="#2c3e50" font-size="9">10-katli capraz dogrulama (CV)</text>
    <text x="600" y="486" text-anchor="middle" fill="#7f8c8d" font-size="9">Siniflandirici: RandomForest  -I 100</text>
    <text x="600" y="500" text-anchor="middle" fill="#7f8c8d" font-size="9">Cikis: /veri/degerlendirme</text>
  </g>

  <!-- Log area at bottom of canvas -->
  <rect x="225" y="560" width="695" height="50" fill="#2c3e50" rx="0"/>
  <text x="235" y="576" fill="#2ecc71" font-size="10" font-family="Courier New, monospace">INFO: Starting Weka Spark job...</text>
  <text x="235" y="592" fill="#bdc3c7" font-size="10" font-family="Courier New, monospace">INFO: CSVToARFFHeaderSparkJob completed in 4.2s | Partitions: 16</text>
  <text x="235" y="607" fill="#bdc3c7" font-size="10" font-family="Courier New, monospace">INFO: WekaClassifierSparkJob — training RandomForest on 16 partitions...</text>

  <!-- Status bar -->
  <rect x="0" y="610" width="920" height="30" fill="#ecf0f1" stroke="#bdc3c7" stroke-width="0.5"/>
  <text x="14" y="628" fill="#636e72" font-size="10">Hazir  |  Bilesен: 4  |  Baglanti: 3  |  spark-akis-v1.kfml</text>
</svg>
